<svg width="20" height="20" viewBox="0 0 20 20" fill="none" xmlns="http://www.w3.org/2000/svg">
<path d="M7.42188 3.42188C7.42188 3.55995 7.5338 3.67188 7.67188 3.67188H16.0156V14.5156C16.0156 14.6537 16.1276 14.7656 16.2656 14.7656H17.3281C17.4662 14.7656 17.5781 14.6537 17.5781 14.5156V2.73438C17.5781 2.3892 17.2983 2.10938 16.9531 2.10938H7.67188C7.5338 2.10938 7.42188 2.2213 7.42188 2.35938V3.42188ZM3.98438 6.95312V16.3281H12.7344V6.95312H3.98438ZM3.04688 17.8906C2.7017 17.8906 2.42188 17.6108 2.42188 17.2656V6.01562C2.42188 5.67045 2.7017 5.39062 3.04687 5.39062H13.6719C14.0171 5.39062 14.2969 5.67045 14.2969 6.01563V17.2656C14.2969 17.6108 14.0171 17.8906 13.6719 17.8906H3.04688Z" fill="#9F9F9F"/>
</svg>
