<svg width="178" height="32" viewBox="0 0 178 32" fill="none" xmlns="http://www.w3.org/2000/svg">
<path d="M16 1C7.71562 1 1 7.71562 1 16C1 24.2844 7.71562 31 16 31C24.2844 31 31 24.2844 31 16C31 7.71562 24.2841 1 16 1ZM23.5122 16.5028C22.3866 17.3263 20.3609 18.8366 19.6284 19.5691C18.9012 20.2963 17.4084 22.2963 16.5812 23.4269C16.2947 23.8184 15.7106 23.815 15.435 23.4203C14.6275 22.2644 13.1556 20.2037 12.4219 19.4703C11.7084 18.7569 9.70094 17.3347 8.56781 16.5506C8.175 16.2787 8.16531 15.7006 8.54875 15.41C9.66063 14.5669 11.6409 13.0394 12.3697 12.3106C13.1028 11.5775 14.6438 9.57875 15.4838 8.47031C15.7703 8.09219 16.3381 8.09531 16.6153 8.47656C17.4006 9.55719 18.8175 11.4672 19.5197 12.1691C20.2722 12.9216 22.3756 14.515 23.5228 15.3691C23.9016 15.6512 23.8966 16.2216 23.5122 16.5028Z" fill="#7D48E8"/>
<path d="M40.032 9.048V14.64H46.128V16.44H40.032V22.2H46.848V24H37.848V7.248H46.848V9.048H40.032ZM49.3367 17.376C49.3367 16.032 49.6087 14.856 50.1527 13.848C50.6967 12.824 51.4407 12.032 52.3847 11.472C53.3447 10.912 54.4087 10.632 55.5767 10.632C56.7287 10.632 57.7287 10.88 58.5767 11.376C59.4247 11.872 60.0567 12.496 60.4727 13.248V10.848H62.6807V24H60.4727V21.552C60.0407 22.32 59.3927 22.96 58.5287 23.472C57.6807 23.968 56.6887 24.216 55.5527 24.216C54.3847 24.216 53.3287 23.928 52.3847 23.352C51.4407 22.776 50.6967 21.968 50.1527 20.928C49.6087 19.888 49.3367 18.704 49.3367 17.376ZM60.4727 17.4C60.4727 16.408 60.2727 15.544 59.8727 14.808C59.4727 14.072 58.9287 13.512 58.2407 13.128C57.5687 12.728 56.8247 12.528 56.0087 12.528C55.1927 12.528 54.4487 12.72 53.7767 13.104C53.1047 13.488 52.5687 14.048 52.1687 14.784C51.7687 15.52 51.5687 16.384 51.5687 17.376C51.5687 18.384 51.7687 19.264 52.1687 20.016C52.5687 20.752 53.1047 21.32 53.7767 21.72C54.4487 22.104 55.1927 22.296 56.0087 22.296C56.8247 22.296 57.5687 22.104 58.2407 21.72C58.9287 21.32 59.4727 20.752 59.8727 20.016C60.2727 19.264 60.4727 18.392 60.4727 17.4ZM68.5554 12.984C68.9394 12.232 69.4834 11.648 70.1874 11.232C70.9074 10.816 71.7794 10.608 72.8034 10.608V12.864H72.2274C69.7794 12.864 68.5554 14.192 68.5554 16.848V24H66.3714V10.848H68.5554V12.984ZM81.7326 10.608C83.3326 10.608 84.6286 11.096 85.6206 12.072C86.6126 13.032 87.1086 14.424 87.1086 16.248V24H84.9486V16.56C84.9486 15.248 84.6206 14.248 83.9646 13.56C83.3086 12.856 82.4126 12.504 81.2766 12.504C80.1246 12.504 79.2046 12.864 78.5166 13.584C77.8446 14.304 77.5086 15.352 77.5086 16.728V24H75.3246V10.848H77.5086V12.72C77.9406 12.048 78.5246 11.528 79.2606 11.16C80.0126 10.792 80.8366 10.608 81.7326 10.608ZM102.811 24.216C101.579 24.216 100.459 23.936 99.4506 23.376C98.4586 22.816 97.6746 22.024 97.0986 21C96.5386 19.96 96.2586 18.76 96.2586 17.4C96.2586 16.056 96.5466 14.872 97.1226 13.848C97.7146 12.808 98.5146 12.016 99.5226 11.472C100.531 10.912 101.659 10.632 102.907 10.632C104.155 10.632 105.283 10.912 106.291 11.472C107.299 12.016 108.091 12.8 108.667 13.824C109.259 14.848 109.555 16.04 109.555 17.4C109.555 18.76 109.251 19.96 108.643 21C108.051 22.024 107.243 22.816 106.219 23.376C105.195 23.936 104.059 24.216 102.811 24.216ZM102.811 22.296C103.595 22.296 104.331 22.112 105.019 21.744C105.707 21.376 106.259 20.824 106.675 20.088C107.107 19.352 107.323 18.456 107.323 17.4C107.323 16.344 107.115 15.448 106.699 14.712C106.283 13.976 105.739 13.432 105.067 13.08C104.395 12.712 103.667 12.528 102.883 12.528C102.083 12.528 101.347 12.712 100.675 13.08C100.019 13.432 99.4906 13.976 99.0906 14.712C98.6906 15.448 98.4906 16.344 98.4906 17.4C98.4906 18.472 98.6826 19.376 99.0666 20.112C99.4666 20.848 99.9946 21.4 100.651 21.768C101.307 22.12 102.027 22.296 102.811 22.296ZM118.834 10.608C120.434 10.608 121.73 11.096 122.722 12.072C123.714 13.032 124.21 14.424 124.21 16.248V24H122.05V16.56C122.05 15.248 121.722 14.248 121.066 13.56C120.41 12.856 119.514 12.504 118.378 12.504C117.226 12.504 116.306 12.864 115.618 13.584C114.946 14.304 114.61 15.352 114.61 16.728V24H112.426V10.848H114.61V12.72C115.042 12.048 115.626 11.528 116.362 11.16C117.114 10.792 117.938 10.608 118.834 10.608ZM133.36 17.376C133.36 16.032 133.632 14.856 134.176 13.848C134.72 12.824 135.464 12.032 136.408 11.472C137.368 10.912 138.432 10.632 139.6 10.632C140.752 10.632 141.752 10.88 142.6 11.376C143.448 11.872 144.08 12.496 144.496 13.248V10.848H146.704V24H144.496V21.552C144.064 22.32 143.416 22.96 142.552 23.472C141.704 23.968 140.712 24.216 139.576 24.216C138.408 24.216 137.352 23.928 136.408 23.352C135.464 22.776 134.72 21.968 134.176 20.928C133.632 19.888 133.36 18.704 133.36 17.376ZM144.496 17.4C144.496 16.408 144.296 15.544 143.896 14.808C143.496 14.072 142.952 13.512 142.264 13.128C141.592 12.728 140.848 12.528 140.032 12.528C139.216 12.528 138.472 12.72 137.8 13.104C137.128 13.488 136.592 14.048 136.192 14.784C135.792 15.52 135.592 16.384 135.592 17.376C135.592 18.384 135.792 19.264 136.192 20.016C136.592 20.752 137.128 21.32 137.8 21.72C138.472 22.104 139.216 22.296 140.032 22.296C140.848 22.296 141.592 22.104 142.264 21.72C142.952 21.32 143.496 20.752 143.896 20.016C144.296 19.264 144.496 18.392 144.496 17.4ZM162.395 16.92C162.395 17.336 162.371 17.776 162.323 18.24H151.811C151.891 19.536 152.331 20.552 153.131 21.288C153.947 22.008 154.931 22.368 156.083 22.368C157.027 22.368 157.811 22.152 158.435 21.72C159.075 21.272 159.523 20.68 159.779 19.944H162.131C161.779 21.208 161.075 22.24 160.019 23.04C158.963 23.824 157.651 24.216 156.083 24.216C154.835 24.216 153.715 23.936 152.723 23.376C151.747 22.816 150.979 22.024 150.419 21C149.859 19.96 149.579 18.76 149.579 17.4C149.579 16.04 149.851 14.848 150.395 13.824C150.939 12.8 151.699 12.016 152.675 11.472C153.667 10.912 154.803 10.632 156.083 10.632C157.331 10.632 158.435 10.904 159.395 11.448C160.355 11.992 161.091 12.744 161.603 13.704C162.131 14.648 162.395 15.72 162.395 16.92ZM160.139 16.464C160.139 15.632 159.955 14.92 159.587 14.328C159.219 13.72 158.715 13.264 158.075 12.96C157.451 12.64 156.755 12.48 155.987 12.48C154.883 12.48 153.939 12.832 153.155 13.536C152.387 14.24 151.947 15.216 151.835 16.464H160.139ZM167.462 6.24V24H165.278V6.24H167.462ZM176.536 12.648H173.776V24H171.592V12.648H169.888V10.848H171.592V9.912C171.592 8.44 171.968 7.368 172.72 6.696C173.488 6.008 174.712 5.664 176.392 5.664V7.488C175.432 7.488 174.752 7.68 174.352 8.064C173.968 8.432 173.776 9.048 173.776 9.912V10.848H176.536V12.648Z" fill="#1A1A1A"/>
</svg>
