<svg width="56" height="56" viewBox="0 0 56 56" fill="none" xmlns="http://www.w3.org/2000/svg">
<rect width="56" height="56" rx="28" fill="#7D48E8"/>
<path d="M28.7075 14.4999C28.317 14.1094 27.6838 14.1094 27.2933 14.4999L18.3837 23.4095C18.2275 23.5657 18.2275 23.8189 18.3837 23.9752L19.798 25.3894C19.9542 25.5456 20.2074 25.5456 20.3636 25.3894L26.6004 19.1526L26.6004 41.3932C26.6004 41.6141 26.7795 41.7932 27.0004 41.7932L29.0004 41.7932C29.2213 41.7932 29.4004 41.6141 29.4004 41.3932L29.4004 19.1539L35.6373 25.3908C35.7935 25.547 36.0468 25.547 36.203 25.3908L37.6172 23.9765C37.7734 23.8203 37.7734 23.5671 37.6172 23.4109L28.7075 14.4999Z" fill="white"/>
</svg>
